<mxfile host="app.diagrams.net" modified="2024-06-11T18:16:03.064Z" agent="Mozilla/5.0 (Windows NT 10.0; Win64; x64; rv:126.0) Gecko/20100101 Firefox/126.0" etag="y8BhVoFHW0nMvdTbXQRo" version="24.5.2" type="device">
  <diagram name="Page-1" id="s_P7Y_G7qokGZDQ_KNMF">
    <mxGraphModel dx="2606" dy="1560" grid="1" gridSize="10" guides="1" tooltips="1" connect="1" arrows="1" fold="1" page="0" pageScale="1" pageWidth="850" pageHeight="1100" math="0" shadow="0">
      <root>
        <mxCell id="0" />
        <mxCell id="1" parent="0" />
        <mxCell id="f7oeg_aIIOycvTehZ1-j-39" style="edgeStyle=elbowEdgeStyle;rounded=0;orthogonalLoop=1;jettySize=auto;html=1;endArrow=none;endFill=0;elbow=vertical;startArrow=classic;startFill=1;" edge="1" parent="1" source="f7oeg_aIIOycvTehZ1-j-74" target="f7oeg_aIIOycvTehZ1-j-13">
          <mxGeometry relative="1" as="geometry">
            <mxPoint x="630" y="640" as="sourcePoint" />
          </mxGeometry>
        </mxCell>
        <mxCell id="f7oeg_aIIOycvTehZ1-j-96" value="implements" style="edgeLabel;html=1;align=center;verticalAlign=middle;resizable=0;points=[];" vertex="1" connectable="0" parent="f7oeg_aIIOycvTehZ1-j-39">
          <mxGeometry x="-0.3067" relative="1" as="geometry">
            <mxPoint x="-182" y="41" as="offset" />
          </mxGeometry>
        </mxCell>
        <mxCell id="f7oeg_aIIOycvTehZ1-j-40" style="edgeStyle=elbowEdgeStyle;rounded=0;orthogonalLoop=1;jettySize=auto;html=1;endArrow=none;endFill=0;elbow=vertical;startArrow=classic;startFill=1;" edge="1" parent="1" source="f7oeg_aIIOycvTehZ1-j-74" target="f7oeg_aIIOycvTehZ1-j-17">
          <mxGeometry relative="1" as="geometry">
            <mxPoint x="810" y="560" as="sourcePoint" />
          </mxGeometry>
        </mxCell>
        <mxCell id="f7oeg_aIIOycvTehZ1-j-97" value="implements" style="edgeLabel;html=1;align=center;verticalAlign=middle;resizable=0;points=[];" vertex="1" connectable="0" parent="f7oeg_aIIOycvTehZ1-j-40">
          <mxGeometry x="0.6646" y="-3" relative="1" as="geometry">
            <mxPoint x="3" y="27" as="offset" />
          </mxGeometry>
        </mxCell>
        <mxCell id="f7oeg_aIIOycvTehZ1-j-62" style="edgeStyle=orthogonalEdgeStyle;rounded=0;orthogonalLoop=1;jettySize=auto;html=1;startArrow=diamondThin;startFill=0;endSize=6;startSize=24;endArrow=open;endFill=0;" edge="1" parent="1" source="f7oeg_aIIOycvTehZ1-j-1" target="f7oeg_aIIOycvTehZ1-j-49">
          <mxGeometry relative="1" as="geometry">
            <Array as="points">
              <mxPoint x="290" y="343" />
              <mxPoint x="290" y="343" />
            </Array>
          </mxGeometry>
        </mxCell>
        <mxCell id="f7oeg_aIIOycvTehZ1-j-64" value="Holds" style="edgeLabel;html=1;align=center;verticalAlign=middle;resizable=0;points=[];" vertex="1" connectable="0" parent="f7oeg_aIIOycvTehZ1-j-62">
          <mxGeometry x="0.0833" y="2" relative="1" as="geometry">
            <mxPoint y="-15" as="offset" />
          </mxGeometry>
        </mxCell>
        <mxCell id="f7oeg_aIIOycvTehZ1-j-65" value="0..*" style="edgeLabel;html=1;align=center;verticalAlign=middle;resizable=0;points=[];" vertex="1" connectable="0" parent="f7oeg_aIIOycvTehZ1-j-62">
          <mxGeometry x="-0.803" y="1" relative="1" as="geometry">
            <mxPoint x="-20" y="-14" as="offset" />
          </mxGeometry>
        </mxCell>
        <mxCell id="f7oeg_aIIOycvTehZ1-j-83" style="edgeStyle=elbowEdgeStyle;rounded=0;orthogonalLoop=1;jettySize=auto;html=1;dashed=1;endArrow=none;endFill=0;startArrow=block;startFill=0;elbow=vertical;" edge="1" parent="1" source="f7oeg_aIIOycvTehZ1-j-1" target="f7oeg_aIIOycvTehZ1-j-187">
          <mxGeometry relative="1" as="geometry" />
        </mxCell>
        <mxCell id="f7oeg_aIIOycvTehZ1-j-94" value="Is" style="edgeLabel;html=1;align=center;verticalAlign=middle;resizable=0;points=[];" vertex="1" connectable="0" parent="f7oeg_aIIOycvTehZ1-j-83">
          <mxGeometry x="-0.0567" y="-2" relative="1" as="geometry">
            <mxPoint x="-32" y="-15" as="offset" />
          </mxGeometry>
        </mxCell>
        <mxCell id="f7oeg_aIIOycvTehZ1-j-1" value="&lt;div&gt;&lt;i style=&quot;font-weight: normal;&quot;&gt;&amp;lt;Interface&amp;gt;&lt;/i&gt;&lt;br&gt;&lt;/div&gt;&lt;div&gt;ICard&lt;/div&gt;" style="swimlane;fontStyle=1;align=center;verticalAlign=top;childLayout=stackLayout;horizontal=1;startSize=40;horizontalStack=0;resizeParent=1;resizeParentMax=0;resizeLast=0;collapsible=1;marginBottom=0;whiteSpace=wrap;html=1;fillColor=default;" vertex="1" parent="1">
          <mxGeometry x="400" y="280" width="160" height="334" as="geometry" />
        </mxCell>
        <mxCell id="f7oeg_aIIOycvTehZ1-j-21" value="+ CardType: CardTypes" style="text;strokeColor=none;fillColor=none;align=left;verticalAlign=top;spacingLeft=4;spacingRight=4;overflow=hidden;rotatable=0;points=[[0,0.5],[1,0.5]];portConstraint=eastwest;whiteSpace=wrap;html=1;" vertex="1" parent="f7oeg_aIIOycvTehZ1-j-1">
          <mxGeometry y="40" width="160" height="26" as="geometry" />
        </mxCell>
        <mxCell id="f7oeg_aIIOycvTehZ1-j-86" value="+ ExpirationDate: datetime" style="text;strokeColor=none;fillColor=none;align=left;verticalAlign=top;spacingLeft=4;spacingRight=4;overflow=hidden;rotatable=0;points=[[0,0.5],[1,0.5]];portConstraint=eastwest;whiteSpace=wrap;html=1;" vertex="1" parent="f7oeg_aIIOycvTehZ1-j-1">
          <mxGeometry y="66" width="160" height="26" as="geometry" />
        </mxCell>
        <mxCell id="f7oeg_aIIOycvTehZ1-j-88" value="+ CardHolder: String" style="text;strokeColor=none;fillColor=none;align=left;verticalAlign=top;spacingLeft=4;spacingRight=4;overflow=hidden;rotatable=0;points=[[0,0.5],[1,0.5]];portConstraint=eastwest;whiteSpace=wrap;html=1;" vertex="1" parent="f7oeg_aIIOycvTehZ1-j-1">
          <mxGeometry y="92" width="160" height="26" as="geometry" />
        </mxCell>
        <mxCell id="f7oeg_aIIOycvTehZ1-j-87" value="+ SecurityNumber: int" style="text;strokeColor=none;fillColor=none;align=left;verticalAlign=top;spacingLeft=4;spacingRight=4;overflow=hidden;rotatable=0;points=[[0,0.5],[1,0.5]];portConstraint=eastwest;whiteSpace=wrap;html=1;" vertex="1" parent="f7oeg_aIIOycvTehZ1-j-1">
          <mxGeometry y="118" width="160" height="26" as="geometry" />
        </mxCell>
        <mxCell id="f7oeg_aIIOycvTehZ1-j-85" value="+ Password: string" style="text;strokeColor=none;fillColor=none;align=left;verticalAlign=top;spacingLeft=4;spacingRight=4;overflow=hidden;rotatable=0;points=[[0,0.5],[1,0.5]];portConstraint=eastwest;whiteSpace=wrap;html=1;" vertex="1" parent="f7oeg_aIIOycvTehZ1-j-1">
          <mxGeometry y="144" width="160" height="26" as="geometry" />
        </mxCell>
        <mxCell id="f7oeg_aIIOycvTehZ1-j-84" value="+ CardNumber: string" style="text;strokeColor=none;fillColor=none;align=left;verticalAlign=top;spacingLeft=4;spacingRight=4;overflow=hidden;rotatable=0;points=[[0,0.5],[1,0.5]];portConstraint=eastwest;whiteSpace=wrap;html=1;" vertex="1" parent="f7oeg_aIIOycvTehZ1-j-1">
          <mxGeometry y="170" width="160" height="26" as="geometry" />
        </mxCell>
        <mxCell id="f7oeg_aIIOycvTehZ1-j-27" value="+ AreaOfUse: Area" style="text;strokeColor=none;fillColor=none;align=left;verticalAlign=top;spacingLeft=4;spacingRight=4;overflow=hidden;rotatable=0;points=[[0,0.5],[1,0.5]];portConstraint=eastwest;whiteSpace=wrap;html=1;" vertex="1" parent="f7oeg_aIIOycvTehZ1-j-1">
          <mxGeometry y="196" width="160" height="26" as="geometry" />
        </mxCell>
        <mxCell id="f7oeg_aIIOycvTehZ1-j-37" value="+ OnlineTrade: Bool" style="text;strokeColor=none;fillColor=none;align=left;verticalAlign=top;spacingLeft=4;spacingRight=4;overflow=hidden;rotatable=0;points=[[0,0.5],[1,0.5]];portConstraint=eastwest;whiteSpace=wrap;html=1;" vertex="1" parent="f7oeg_aIIOycvTehZ1-j-1">
          <mxGeometry y="222" width="160" height="26" as="geometry" />
        </mxCell>
        <mxCell id="f7oeg_aIIOycvTehZ1-j-38" value="+ CanPayInStore: Bool" style="text;strokeColor=none;fillColor=none;align=left;verticalAlign=top;spacingLeft=4;spacingRight=4;overflow=hidden;rotatable=0;points=[[0,0.5],[1,0.5]];portConstraint=eastwest;whiteSpace=wrap;html=1;" vertex="1" parent="f7oeg_aIIOycvTehZ1-j-1">
          <mxGeometry y="248" width="160" height="26" as="geometry" />
        </mxCell>
        <mxCell id="f7oeg_aIIOycvTehZ1-j-159" value="+ Countries: String[]" style="text;strokeColor=none;fillColor=none;align=left;verticalAlign=top;spacingLeft=4;spacingRight=4;overflow=hidden;rotatable=0;points=[[0,0.5],[1,0.5]];portConstraint=eastwest;whiteSpace=wrap;html=1;" vertex="1" parent="f7oeg_aIIOycvTehZ1-j-1">
          <mxGeometry y="274" width="160" height="26" as="geometry" />
        </mxCell>
        <mxCell id="f7oeg_aIIOycvTehZ1-j-3" value="" style="line;strokeWidth=1;fillColor=none;align=left;verticalAlign=middle;spacingTop=-1;spacingLeft=3;spacingRight=3;rotatable=0;labelPosition=right;points=[];portConstraint=eastwest;strokeColor=inherit;" vertex="1" parent="f7oeg_aIIOycvTehZ1-j-1">
          <mxGeometry y="300" width="160" height="8" as="geometry" />
        </mxCell>
        <mxCell id="f7oeg_aIIOycvTehZ1-j-4" value="&amp;nbsp;" style="text;strokeColor=none;fillColor=none;align=left;verticalAlign=top;spacingLeft=4;spacingRight=4;overflow=hidden;rotatable=0;points=[[0,0.5],[1,0.5]];portConstraint=eastwest;whiteSpace=wrap;html=1;" vertex="1" parent="f7oeg_aIIOycvTehZ1-j-1">
          <mxGeometry y="308" width="160" height="26" as="geometry" />
        </mxCell>
        <mxCell id="f7oeg_aIIOycvTehZ1-j-127" style="edgeStyle=elbowEdgeStyle;rounded=0;orthogonalLoop=1;jettySize=auto;html=1;endArrow=none;endFill=0;startArrow=classic;startFill=1;" edge="1" parent="1" source="f7oeg_aIIOycvTehZ1-j-13" target="f7oeg_aIIOycvTehZ1-j-104">
          <mxGeometry relative="1" as="geometry" />
        </mxCell>
        <mxCell id="f7oeg_aIIOycvTehZ1-j-131" value="inherits " style="edgeLabel;html=1;align=center;verticalAlign=middle;resizable=0;points=[];" vertex="1" connectable="0" parent="f7oeg_aIIOycvTehZ1-j-127">
          <mxGeometry x="0.8105" y="-1" relative="1" as="geometry">
            <mxPoint x="1" y="-5" as="offset" />
          </mxGeometry>
        </mxCell>
        <mxCell id="f7oeg_aIIOycvTehZ1-j-13" value="&lt;i&gt;Debit&lt;/i&gt;" style="swimlane;fontStyle=1;align=center;verticalAlign=top;childLayout=stackLayout;horizontal=1;startSize=26;horizontalStack=0;resizeParent=1;resizeParentMax=0;resizeLast=0;collapsible=1;marginBottom=0;whiteSpace=wrap;html=1;" vertex="1" parent="1">
          <mxGeometry x="320" y="960" width="160" height="86" as="geometry" />
        </mxCell>
        <mxCell id="f7oeg_aIIOycvTehZ1-j-41" style="text;strokeColor=none;fillColor=none;align=left;verticalAlign=top;spacingLeft=4;spacingRight=4;overflow=hidden;rotatable=0;points=[[0,0.5],[1,0.5]];portConstraint=eastwest;whiteSpace=wrap;html=1;" vertex="1" parent="f7oeg_aIIOycvTehZ1-j-13">
          <mxGeometry y="26" width="160" height="26" as="geometry" />
        </mxCell>
        <mxCell id="f7oeg_aIIOycvTehZ1-j-15" value="" style="line;strokeWidth=1;fillColor=none;align=left;verticalAlign=middle;spacingTop=-1;spacingLeft=3;spacingRight=3;rotatable=0;labelPosition=right;points=[];portConstraint=eastwest;strokeColor=inherit;" vertex="1" parent="f7oeg_aIIOycvTehZ1-j-13">
          <mxGeometry y="52" width="160" height="8" as="geometry" />
        </mxCell>
        <mxCell id="f7oeg_aIIOycvTehZ1-j-152" value="+ widthdraw(float): bool" style="text;strokeColor=none;fillColor=none;align=left;verticalAlign=top;spacingLeft=4;spacingRight=4;overflow=hidden;rotatable=0;points=[[0,0.5],[1,0.5]];portConstraint=eastwest;whiteSpace=wrap;html=1;" vertex="1" parent="f7oeg_aIIOycvTehZ1-j-13">
          <mxGeometry y="60" width="160" height="26" as="geometry" />
        </mxCell>
        <mxCell id="f7oeg_aIIOycvTehZ1-j-122" style="edgeStyle=orthogonalEdgeStyle;rounded=0;orthogonalLoop=1;jettySize=auto;html=1;endArrow=none;endFill=0;startArrow=classic;startFill=1;" edge="1" parent="1" source="f7oeg_aIIOycvTehZ1-j-17" target="f7oeg_aIIOycvTehZ1-j-116">
          <mxGeometry relative="1" as="geometry">
            <Array as="points">
              <mxPoint x="880" y="1120" />
              <mxPoint x="960" y="1120" />
            </Array>
          </mxGeometry>
        </mxCell>
        <mxCell id="f7oeg_aIIOycvTehZ1-j-125" value="inherits " style="edgeLabel;html=1;align=center;verticalAlign=middle;resizable=0;points=[];" vertex="1" connectable="0" parent="f7oeg_aIIOycvTehZ1-j-122">
          <mxGeometry x="0.8852" y="-2" relative="1" as="geometry">
            <mxPoint x="2" y="-8" as="offset" />
          </mxGeometry>
        </mxCell>
        <mxCell id="f7oeg_aIIOycvTehZ1-j-17" value="&lt;i&gt;Credit&lt;/i&gt;" style="swimlane;fontStyle=1;align=center;verticalAlign=top;childLayout=stackLayout;horizontal=1;startSize=26;horizontalStack=0;resizeParent=1;resizeParentMax=0;resizeLast=0;collapsible=1;marginBottom=0;whiteSpace=wrap;html=1;" vertex="1" parent="1">
          <mxGeometry x="800" y="960" width="160" height="112" as="geometry" />
        </mxCell>
        <mxCell id="f7oeg_aIIOycvTehZ1-j-43" value="+ MinBalance: sint" style="text;strokeColor=none;fillColor=none;align=left;verticalAlign=top;spacingLeft=4;spacingRight=4;overflow=hidden;rotatable=0;points=[[0,0.5],[1,0.5]];portConstraint=eastwest;whiteSpace=wrap;html=1;" vertex="1" parent="f7oeg_aIIOycvTehZ1-j-17">
          <mxGeometry y="26" width="160" height="26" as="geometry" />
        </mxCell>
        <mxCell id="f7oeg_aIIOycvTehZ1-j-172" value="+ Lent: sint" style="text;strokeColor=none;fillColor=none;align=left;verticalAlign=top;spacingLeft=4;spacingRight=4;overflow=hidden;rotatable=0;points=[[0,0.5],[1,0.5]];portConstraint=eastwest;whiteSpace=wrap;html=1;" vertex="1" parent="f7oeg_aIIOycvTehZ1-j-17">
          <mxGeometry y="52" width="160" height="26" as="geometry" />
        </mxCell>
        <mxCell id="f7oeg_aIIOycvTehZ1-j-19" value="" style="line;strokeWidth=1;fillColor=none;align=left;verticalAlign=middle;spacingTop=-1;spacingLeft=3;spacingRight=3;rotatable=0;labelPosition=right;points=[];portConstraint=eastwest;strokeColor=inherit;" vertex="1" parent="f7oeg_aIIOycvTehZ1-j-17">
          <mxGeometry y="78" width="160" height="8" as="geometry" />
        </mxCell>
        <mxCell id="f7oeg_aIIOycvTehZ1-j-20" value="+ loan(float): bool" style="text;strokeColor=none;fillColor=none;align=left;verticalAlign=top;spacingLeft=4;spacingRight=4;overflow=hidden;rotatable=0;points=[[0,0.5],[1,0.5]];portConstraint=eastwest;whiteSpace=wrap;html=1;" vertex="1" parent="f7oeg_aIIOycvTehZ1-j-17">
          <mxGeometry y="86" width="160" height="26" as="geometry" />
        </mxCell>
        <mxCell id="f7oeg_aIIOycvTehZ1-j-26" style="edgeStyle=orthogonalEdgeStyle;rounded=0;orthogonalLoop=1;jettySize=auto;html=1;endArrow=none;endFill=0;" edge="1" parent="1" source="f7oeg_aIIOycvTehZ1-j-22" target="f7oeg_aIIOycvTehZ1-j-1">
          <mxGeometry relative="1" as="geometry" />
        </mxCell>
        <mxCell id="f7oeg_aIIOycvTehZ1-j-22" value="&lt;div&gt;&amp;lt;Enum&amp;gt;&lt;/div&gt;&lt;div&gt;CardTypes&lt;br&gt;&lt;/div&gt;" style="swimlane;fontStyle=0;childLayout=stackLayout;horizontal=1;startSize=38;fillColor=none;horizontalStack=0;resizeParent=1;resizeParentMax=0;resizeLast=0;collapsible=1;marginBottom=0;whiteSpace=wrap;html=1;" vertex="1" parent="1">
          <mxGeometry x="220" y="-50" width="140" height="116" as="geometry" />
        </mxCell>
        <mxCell id="f7oeg_aIIOycvTehZ1-j-23" value="+ Debit" style="text;strokeColor=none;fillColor=none;align=left;verticalAlign=top;spacingLeft=4;spacingRight=4;overflow=hidden;rotatable=0;points=[[0,0.5],[1,0.5]];portConstraint=eastwest;whiteSpace=wrap;html=1;" vertex="1" parent="f7oeg_aIIOycvTehZ1-j-22">
          <mxGeometry y="38" width="140" height="26" as="geometry" />
        </mxCell>
        <mxCell id="f7oeg_aIIOycvTehZ1-j-24" value="+ Credit" style="text;strokeColor=none;fillColor=none;align=left;verticalAlign=top;spacingLeft=4;spacingRight=4;overflow=hidden;rotatable=0;points=[[0,0.5],[1,0.5]];portConstraint=eastwest;whiteSpace=wrap;html=1;" vertex="1" parent="f7oeg_aIIOycvTehZ1-j-22">
          <mxGeometry y="64" width="140" height="26" as="geometry" />
        </mxCell>
        <mxCell id="f7oeg_aIIOycvTehZ1-j-68" value="+ Gift" style="text;strokeColor=none;fillColor=none;align=left;verticalAlign=top;spacingLeft=4;spacingRight=4;overflow=hidden;rotatable=0;points=[[0,0.5],[1,0.5]];portConstraint=eastwest;whiteSpace=wrap;html=1;" vertex="1" parent="f7oeg_aIIOycvTehZ1-j-22">
          <mxGeometry y="90" width="140" height="26" as="geometry" />
        </mxCell>
        <mxCell id="f7oeg_aIIOycvTehZ1-j-35" style="edgeStyle=orthogonalEdgeStyle;rounded=0;orthogonalLoop=1;jettySize=auto;html=1;endArrow=none;endFill=0;" edge="1" parent="1" source="f7oeg_aIIOycvTehZ1-j-28" target="f7oeg_aIIOycvTehZ1-j-1">
          <mxGeometry relative="1" as="geometry" />
        </mxCell>
        <mxCell id="f7oeg_aIIOycvTehZ1-j-28" value="&lt;div&gt;&amp;lt;Enum&amp;gt;&lt;/div&gt;Area" style="swimlane;fontStyle=0;childLayout=stackLayout;horizontal=1;startSize=38;fillColor=none;horizontalStack=0;resizeParent=1;resizeParentMax=0;resizeLast=0;collapsible=1;marginBottom=0;whiteSpace=wrap;html=1;" vertex="1" parent="1">
          <mxGeometry x="220" y="80" width="140" height="116" as="geometry" />
        </mxCell>
        <mxCell id="f7oeg_aIIOycvTehZ1-j-29" value="+ National" style="text;strokeColor=none;fillColor=none;align=left;verticalAlign=top;spacingLeft=4;spacingRight=4;overflow=hidden;rotatable=0;points=[[0,0.5],[1,0.5]];portConstraint=eastwest;whiteSpace=wrap;html=1;" vertex="1" parent="f7oeg_aIIOycvTehZ1-j-28">
          <mxGeometry y="38" width="140" height="26" as="geometry" />
        </mxCell>
        <mxCell id="f7oeg_aIIOycvTehZ1-j-30" value="+ Region" style="text;strokeColor=none;fillColor=none;align=left;verticalAlign=top;spacingLeft=4;spacingRight=4;overflow=hidden;rotatable=0;points=[[0,0.5],[1,0.5]];portConstraint=eastwest;whiteSpace=wrap;html=1;" vertex="1" parent="f7oeg_aIIOycvTehZ1-j-28">
          <mxGeometry y="64" width="140" height="26" as="geometry" />
        </mxCell>
        <mxCell id="f7oeg_aIIOycvTehZ1-j-33" value="+ International" style="text;strokeColor=none;fillColor=none;align=left;verticalAlign=top;spacingLeft=4;spacingRight=4;overflow=hidden;rotatable=0;points=[[0,0.5],[1,0.5]];portConstraint=eastwest;whiteSpace=wrap;html=1;" vertex="1" parent="f7oeg_aIIOycvTehZ1-j-28">
          <mxGeometry y="90" width="140" height="26" as="geometry" />
        </mxCell>
        <mxCell id="f7oeg_aIIOycvTehZ1-j-193" style="edgeStyle=orthogonalEdgeStyle;rounded=0;orthogonalLoop=1;jettySize=auto;html=1;endArrow=open;endFill=0;" edge="1" parent="1" source="f7oeg_aIIOycvTehZ1-j-44" target="f7oeg_aIIOycvTehZ1-j-116">
          <mxGeometry relative="1" as="geometry">
            <Array as="points">
              <mxPoint x="1200" y="1243" />
            </Array>
          </mxGeometry>
        </mxCell>
        <mxCell id="f7oeg_aIIOycvTehZ1-j-195" style="edgeStyle=orthogonalEdgeStyle;rounded=0;orthogonalLoop=1;jettySize=auto;html=1;endArrow=open;endFill=0;" edge="1" parent="1" source="f7oeg_aIIOycvTehZ1-j-44" target="f7oeg_aIIOycvTehZ1-j-112">
          <mxGeometry relative="1" as="geometry">
            <Array as="points">
              <mxPoint x="1200" y="1380" />
              <mxPoint x="680" y="1380" />
            </Array>
          </mxGeometry>
        </mxCell>
        <mxCell id="f7oeg_aIIOycvTehZ1-j-196" style="edgeStyle=orthogonalEdgeStyle;rounded=0;orthogonalLoop=1;jettySize=auto;html=1;endArrow=open;endFill=0;" edge="1" parent="1" source="f7oeg_aIIOycvTehZ1-j-44" target="f7oeg_aIIOycvTehZ1-j-69">
          <mxGeometry relative="1" as="geometry">
            <Array as="points">
              <mxPoint x="1200" y="1380" />
              <mxPoint x="-180" y="1380" />
              <mxPoint x="-180" y="763" />
            </Array>
          </mxGeometry>
        </mxCell>
        <mxCell id="f7oeg_aIIOycvTehZ1-j-44" value="&lt;div&gt;sint&lt;/div&gt;" style="swimlane;fontStyle=1;align=center;verticalAlign=top;childLayout=stackLayout;horizontal=1;startSize=26;horizontalStack=0;resizeParent=1;resizeParentMax=0;resizeLast=0;collapsible=1;marginBottom=0;whiteSpace=wrap;html=1;" vertex="1" parent="1">
          <mxGeometry x="1120" y="960" width="160" height="86" as="geometry" />
        </mxCell>
        <mxCell id="f7oeg_aIIOycvTehZ1-j-45" value="+ value: int" style="text;strokeColor=none;fillColor=none;align=left;verticalAlign=top;spacingLeft=4;spacingRight=4;overflow=hidden;rotatable=0;points=[[0,0.5],[1,0.5]];portConstraint=eastwest;whiteSpace=wrap;html=1;" vertex="1" parent="f7oeg_aIIOycvTehZ1-j-44">
          <mxGeometry y="26" width="160" height="26" as="geometry" />
        </mxCell>
        <mxCell id="f7oeg_aIIOycvTehZ1-j-46" value="" style="line;strokeWidth=1;fillColor=none;align=left;verticalAlign=middle;spacingTop=-1;spacingLeft=3;spacingRight=3;rotatable=0;labelPosition=right;points=[];portConstraint=eastwest;strokeColor=inherit;" vertex="1" parent="f7oeg_aIIOycvTehZ1-j-44">
          <mxGeometry y="52" width="160" height="8" as="geometry" />
        </mxCell>
        <mxCell id="f7oeg_aIIOycvTehZ1-j-47" value="+ method(type): type" style="text;strokeColor=none;fillColor=none;align=left;verticalAlign=top;spacingLeft=4;spacingRight=4;overflow=hidden;rotatable=0;points=[[0,0.5],[1,0.5]];portConstraint=eastwest;whiteSpace=wrap;html=1;" vertex="1" parent="f7oeg_aIIOycvTehZ1-j-44">
          <mxGeometry y="60" width="160" height="26" as="geometry" />
        </mxCell>
        <mxCell id="f7oeg_aIIOycvTehZ1-j-48" style="edgeStyle=orthogonalEdgeStyle;rounded=0;orthogonalLoop=1;jettySize=auto;html=1;startArrow=diamondThin;startFill=1;endArrow=open;endFill=0;endSize=6;startSize=24;" edge="1" parent="1" source="f7oeg_aIIOycvTehZ1-j-44" target="f7oeg_aIIOycvTehZ1-j-17">
          <mxGeometry relative="1" as="geometry">
            <Array as="points" />
          </mxGeometry>
        </mxCell>
        <mxCell id="f7oeg_aIIOycvTehZ1-j-98" value="Contains" style="edgeLabel;html=1;align=center;verticalAlign=middle;resizable=0;points=[];" vertex="1" connectable="0" parent="f7oeg_aIIOycvTehZ1-j-48">
          <mxGeometry x="-0.0556" y="-3" relative="1" as="geometry">
            <mxPoint x="-24" y="-10" as="offset" />
          </mxGeometry>
        </mxCell>
        <mxCell id="f7oeg_aIIOycvTehZ1-j-132" value="2" style="edgeLabel;html=1;align=center;verticalAlign=middle;resizable=0;points=[];" vertex="1" connectable="0" parent="f7oeg_aIIOycvTehZ1-j-48">
          <mxGeometry x="0.6111" y="1" relative="1" as="geometry">
            <mxPoint x="89" y="-27" as="offset" />
          </mxGeometry>
        </mxCell>
        <mxCell id="f7oeg_aIIOycvTehZ1-j-49" value="&lt;div&gt;&lt;i style=&quot;font-weight: normal;&quot;&gt;&amp;lt;Interface&amp;gt;&lt;/i&gt;&lt;br&gt;&lt;/div&gt;CardHolder" style="swimlane;fontStyle=1;align=center;verticalAlign=top;childLayout=stackLayout;horizontal=1;startSize=40;horizontalStack=0;resizeParent=1;resizeParentMax=0;resizeLast=0;collapsible=1;marginBottom=0;whiteSpace=wrap;html=1;fillColor=default;" vertex="1" parent="1">
          <mxGeometry x="40" y="280" width="160" height="126" as="geometry" />
        </mxCell>
        <mxCell id="f7oeg_aIIOycvTehZ1-j-50" value="+ Age: ushort" style="text;strokeColor=none;fillColor=none;align=left;verticalAlign=top;spacingLeft=4;spacingRight=4;overflow=hidden;rotatable=0;points=[[0,0.5],[1,0.5]];portConstraint=eastwest;whiteSpace=wrap;html=1;" vertex="1" parent="f7oeg_aIIOycvTehZ1-j-49">
          <mxGeometry y="40" width="160" height="26" as="geometry" />
        </mxCell>
        <mxCell id="f7oeg_aIIOycvTehZ1-j-51" value="+ ICard[]: Cards" style="text;strokeColor=none;fillColor=none;align=left;verticalAlign=top;spacingLeft=4;spacingRight=4;overflow=hidden;rotatable=0;points=[[0,0.5],[1,0.5]];portConstraint=eastwest;whiteSpace=wrap;html=1;" vertex="1" parent="f7oeg_aIIOycvTehZ1-j-49">
          <mxGeometry y="66" width="160" height="26" as="geometry" />
        </mxCell>
        <mxCell id="f7oeg_aIIOycvTehZ1-j-55" value="" style="line;strokeWidth=1;fillColor=none;align=left;verticalAlign=middle;spacingTop=-1;spacingLeft=3;spacingRight=3;rotatable=0;labelPosition=right;points=[];portConstraint=eastwest;strokeColor=inherit;" vertex="1" parent="f7oeg_aIIOycvTehZ1-j-49">
          <mxGeometry y="92" width="160" height="8" as="geometry" />
        </mxCell>
        <mxCell id="f7oeg_aIIOycvTehZ1-j-56" value="+ method(type): type" style="text;strokeColor=none;fillColor=none;align=left;verticalAlign=top;spacingLeft=4;spacingRight=4;overflow=hidden;rotatable=0;points=[[0,0.5],[1,0.5]];portConstraint=eastwest;whiteSpace=wrap;html=1;" vertex="1" parent="f7oeg_aIIOycvTehZ1-j-49">
          <mxGeometry y="100" width="160" height="26" as="geometry" />
        </mxCell>
        <mxCell id="f7oeg_aIIOycvTehZ1-j-57" value="Account" style="swimlane;fontStyle=1;align=center;verticalAlign=top;childLayout=stackLayout;horizontal=1;startSize=30;horizontalStack=0;resizeParent=1;resizeParentMax=0;resizeLast=0;collapsible=1;marginBottom=0;whiteSpace=wrap;html=1;fillColor=default;" vertex="1" parent="1">
          <mxGeometry x="810" y="500" width="160" height="116" as="geometry" />
        </mxCell>
        <mxCell id="f7oeg_aIIOycvTehZ1-j-58" value="+ Balance: int" style="text;strokeColor=none;fillColor=none;align=left;verticalAlign=top;spacingLeft=4;spacingRight=4;overflow=hidden;rotatable=0;points=[[0,0.5],[1,0.5]];portConstraint=eastwest;whiteSpace=wrap;html=1;" vertex="1" parent="f7oeg_aIIOycvTehZ1-j-57">
          <mxGeometry y="30" width="160" height="26" as="geometry" />
        </mxCell>
        <mxCell id="f7oeg_aIIOycvTehZ1-j-161" value="+ AccountNumber" style="text;strokeColor=none;fillColor=none;align=left;verticalAlign=top;spacingLeft=4;spacingRight=4;overflow=hidden;rotatable=0;points=[[0,0.5],[1,0.5]];portConstraint=eastwest;whiteSpace=wrap;html=1;" vertex="1" parent="f7oeg_aIIOycvTehZ1-j-57">
          <mxGeometry y="56" width="160" height="26" as="geometry" />
        </mxCell>
        <mxCell id="f7oeg_aIIOycvTehZ1-j-60" value="" style="line;strokeWidth=1;fillColor=none;align=left;verticalAlign=middle;spacingTop=-1;spacingLeft=3;spacingRight=3;rotatable=0;labelPosition=right;points=[];portConstraint=eastwest;strokeColor=inherit;" vertex="1" parent="f7oeg_aIIOycvTehZ1-j-57">
          <mxGeometry y="82" width="160" height="8" as="geometry" />
        </mxCell>
        <mxCell id="f7oeg_aIIOycvTehZ1-j-61" value="&amp;nbsp;" style="text;strokeColor=none;fillColor=none;align=left;verticalAlign=top;spacingLeft=4;spacingRight=4;overflow=hidden;rotatable=0;points=[[0,0.5],[1,0.5]];portConstraint=eastwest;whiteSpace=wrap;html=1;" vertex="1" parent="f7oeg_aIIOycvTehZ1-j-57">
          <mxGeometry y="90" width="160" height="26" as="geometry" />
        </mxCell>
        <mxCell id="f7oeg_aIIOycvTehZ1-j-63" style="edgeStyle=orthogonalEdgeStyle;rounded=0;orthogonalLoop=1;jettySize=auto;html=1;endArrow=open;endFill=0;" edge="1" parent="1" source="f7oeg_aIIOycvTehZ1-j-74" target="f7oeg_aIIOycvTehZ1-j-57">
          <mxGeometry relative="1" as="geometry">
            <Array as="points">
              <mxPoint x="720" y="550" />
            </Array>
          </mxGeometry>
        </mxCell>
        <mxCell id="f7oeg_aIIOycvTehZ1-j-66" value="Is Connected to" style="edgeLabel;html=1;align=center;verticalAlign=middle;resizable=0;points=[];" vertex="1" connectable="0" parent="f7oeg_aIIOycvTehZ1-j-63">
          <mxGeometry x="0.329" y="-1" relative="1" as="geometry">
            <mxPoint x="-16" y="36" as="offset" />
          </mxGeometry>
        </mxCell>
        <mxCell id="f7oeg_aIIOycvTehZ1-j-67" value="1..1" style="edgeLabel;html=1;align=center;verticalAlign=middle;resizable=0;points=[];" vertex="1" connectable="0" parent="f7oeg_aIIOycvTehZ1-j-63">
          <mxGeometry x="-0.9407" relative="1" as="geometry">
            <mxPoint x="11" y="-9" as="offset" />
          </mxGeometry>
        </mxCell>
        <mxCell id="f7oeg_aIIOycvTehZ1-j-158" value="" style="edgeStyle=orthogonalEdgeStyle;rounded=0;orthogonalLoop=1;jettySize=auto;html=1;" edge="1" parent="1" source="f7oeg_aIIOycvTehZ1-j-69" target="f7oeg_aIIOycvTehZ1-j-154">
          <mxGeometry relative="1" as="geometry" />
        </mxCell>
        <mxCell id="f7oeg_aIIOycvTehZ1-j-69" value="&lt;i&gt;GiftCard&lt;/i&gt;" style="swimlane;fontStyle=1;align=center;verticalAlign=top;childLayout=stackLayout;horizontal=1;startSize=26;horizontalStack=0;resizeParent=1;resizeParentMax=0;resizeLast=0;collapsible=1;marginBottom=0;whiteSpace=wrap;html=1;" vertex="1" parent="1">
          <mxGeometry x="-40" y="720" width="160" height="86" as="geometry" />
        </mxCell>
        <mxCell id="f7oeg_aIIOycvTehZ1-j-70" value="+ Balance:float" style="text;strokeColor=none;fillColor=none;align=left;verticalAlign=top;spacingLeft=4;spacingRight=4;overflow=hidden;rotatable=0;points=[[0,0.5],[1,0.5]];portConstraint=eastwest;whiteSpace=wrap;html=1;" vertex="1" parent="f7oeg_aIIOycvTehZ1-j-69">
          <mxGeometry y="26" width="160" height="26" as="geometry" />
        </mxCell>
        <mxCell id="f7oeg_aIIOycvTehZ1-j-71" value="" style="line;strokeWidth=1;fillColor=none;align=left;verticalAlign=middle;spacingTop=-1;spacingLeft=3;spacingRight=3;rotatable=0;labelPosition=right;points=[];portConstraint=eastwest;strokeColor=inherit;" vertex="1" parent="f7oeg_aIIOycvTehZ1-j-69">
          <mxGeometry y="52" width="160" height="8" as="geometry" />
        </mxCell>
        <mxCell id="f7oeg_aIIOycvTehZ1-j-72" value="+ reduce(float): bool" style="text;strokeColor=none;fillColor=none;align=left;verticalAlign=top;spacingLeft=4;spacingRight=4;overflow=hidden;rotatable=0;points=[[0,0.5],[1,0.5]];portConstraint=eastwest;whiteSpace=wrap;html=1;" vertex="1" parent="f7oeg_aIIOycvTehZ1-j-69">
          <mxGeometry y="60" width="160" height="26" as="geometry" />
        </mxCell>
        <mxCell id="f7oeg_aIIOycvTehZ1-j-74" value="BankCard" style="swimlane;fontStyle=1;align=center;verticalAlign=top;childLayout=stackLayout;horizontal=1;startSize=30;horizontalStack=0;resizeParent=1;resizeParentMax=0;resizeLast=0;collapsible=1;marginBottom=0;whiteSpace=wrap;html=1;fillColor=default;" vertex="1" parent="1">
          <mxGeometry x="560" y="680" width="160" height="116" as="geometry" />
        </mxCell>
        <mxCell id="f7oeg_aIIOycvTehZ1-j-75" value="+ Age: ushort" style="text;strokeColor=none;fillColor=none;align=left;verticalAlign=top;spacingLeft=4;spacingRight=4;overflow=hidden;rotatable=0;points=[[0,0.5],[1,0.5]];portConstraint=eastwest;whiteSpace=wrap;html=1;" vertex="1" parent="f7oeg_aIIOycvTehZ1-j-74">
          <mxGeometry y="30" width="160" height="26" as="geometry" />
        </mxCell>
        <mxCell id="f7oeg_aIIOycvTehZ1-j-162" value="+ AccountNumber: String" style="text;strokeColor=none;fillColor=none;align=left;verticalAlign=top;spacingLeft=4;spacingRight=4;overflow=hidden;rotatable=0;points=[[0,0.5],[1,0.5]];portConstraint=eastwest;whiteSpace=wrap;html=1;" vertex="1" parent="f7oeg_aIIOycvTehZ1-j-74">
          <mxGeometry y="56" width="160" height="26" as="geometry" />
        </mxCell>
        <mxCell id="f7oeg_aIIOycvTehZ1-j-80" value="" style="line;strokeWidth=1;fillColor=none;align=left;verticalAlign=middle;spacingTop=-1;spacingLeft=3;spacingRight=3;rotatable=0;labelPosition=right;points=[];portConstraint=eastwest;strokeColor=inherit;" vertex="1" parent="f7oeg_aIIOycvTehZ1-j-74">
          <mxGeometry y="82" width="160" height="8" as="geometry" />
        </mxCell>
        <mxCell id="f7oeg_aIIOycvTehZ1-j-81" value="+ deposit(float): bool" style="text;strokeColor=none;fillColor=none;align=left;verticalAlign=top;spacingLeft=4;spacingRight=4;overflow=hidden;rotatable=0;points=[[0,0.5],[1,0.5]];portConstraint=eastwest;whiteSpace=wrap;html=1;" vertex="1" parent="f7oeg_aIIOycvTehZ1-j-74">
          <mxGeometry y="90" width="160" height="26" as="geometry" />
        </mxCell>
        <mxCell id="f7oeg_aIIOycvTehZ1-j-91" style="edgeStyle=orthogonalEdgeStyle;rounded=0;orthogonalLoop=1;jettySize=auto;html=1;endArrow=diamondThin;endFill=1;startSize=6;endSize=24;startArrow=open;startFill=0;" edge="1" parent="1" source="f7oeg_aIIOycvTehZ1-j-90" target="f7oeg_aIIOycvTehZ1-j-1">
          <mxGeometry relative="1" as="geometry" />
        </mxCell>
        <mxCell id="f7oeg_aIIOycvTehZ1-j-93" value="issues" style="edgeLabel;html=1;align=center;verticalAlign=middle;resizable=0;points=[];" vertex="1" connectable="0" parent="f7oeg_aIIOycvTehZ1-j-91">
          <mxGeometry x="-0.2364" y="4" relative="1" as="geometry">
            <mxPoint y="-14" as="offset" />
          </mxGeometry>
        </mxCell>
        <mxCell id="f7oeg_aIIOycvTehZ1-j-197" value="0..*" style="edgeLabel;html=1;align=center;verticalAlign=middle;resizable=0;points=[];" vertex="1" connectable="0" parent="f7oeg_aIIOycvTehZ1-j-91">
          <mxGeometry x="0.7893" y="-1" relative="1" as="geometry">
            <mxPoint x="-6" y="-6" as="offset" />
          </mxGeometry>
        </mxCell>
        <mxCell id="f7oeg_aIIOycvTehZ1-j-90" value="Bank" style="html=1;whiteSpace=wrap;" vertex="1" parent="1">
          <mxGeometry x="990" y="409" width="110" height="50" as="geometry" />
        </mxCell>
        <mxCell id="f7oeg_aIIOycvTehZ1-j-104" value="DebitCard" style="swimlane;fontStyle=1;align=center;verticalAlign=top;childLayout=stackLayout;horizontal=1;startSize=26;horizontalStack=0;resizeParent=1;resizeParentMax=0;resizeLast=0;collapsible=1;marginBottom=0;whiteSpace=wrap;html=1;" vertex="1" parent="1">
          <mxGeometry x="320" y="1200" width="160" height="86" as="geometry" />
        </mxCell>
        <mxCell id="f7oeg_aIIOycvTehZ1-j-105" value="&amp;nbsp;" style="text;strokeColor=none;fillColor=none;align=left;verticalAlign=top;spacingLeft=4;spacingRight=4;overflow=hidden;rotatable=0;points=[[0,0.5],[1,0.5]];portConstraint=eastwest;whiteSpace=wrap;html=1;" vertex="1" parent="f7oeg_aIIOycvTehZ1-j-104">
          <mxGeometry y="26" width="160" height="26" as="geometry" />
        </mxCell>
        <mxCell id="f7oeg_aIIOycvTehZ1-j-106" value="" style="line;strokeWidth=1;fillColor=none;align=left;verticalAlign=middle;spacingTop=-1;spacingLeft=3;spacingRight=3;rotatable=0;labelPosition=right;points=[];portConstraint=eastwest;strokeColor=inherit;" vertex="1" parent="f7oeg_aIIOycvTehZ1-j-104">
          <mxGeometry y="52" width="160" height="8" as="geometry" />
        </mxCell>
        <mxCell id="f7oeg_aIIOycvTehZ1-j-107" value="ToString:String" style="text;strokeColor=none;fillColor=none;align=left;verticalAlign=top;spacingLeft=4;spacingRight=4;overflow=hidden;rotatable=0;points=[[0,0.5],[1,0.5]];portConstraint=eastwest;whiteSpace=wrap;html=1;" vertex="1" parent="f7oeg_aIIOycvTehZ1-j-104">
          <mxGeometry y="60" width="160" height="26" as="geometry" />
        </mxCell>
        <mxCell id="f7oeg_aIIOycvTehZ1-j-166" style="edgeStyle=orthogonalEdgeStyle;rounded=0;orthogonalLoop=1;jettySize=auto;html=1;endArrow=open;endFill=0;startSize=24;endSize=6;startArrow=diamondThin;startFill=1;" edge="1" parent="1" source="f7oeg_aIIOycvTehZ1-j-112" target="f7oeg_aIIOycvTehZ1-j-104">
          <mxGeometry relative="1" as="geometry" />
        </mxCell>
        <mxCell id="f7oeg_aIIOycvTehZ1-j-168" value="Contains" style="edgeLabel;html=1;align=center;verticalAlign=middle;resizable=0;points=[];" vertex="1" connectable="0" parent="f7oeg_aIIOycvTehZ1-j-166">
          <mxGeometry x="0.269" relative="1" as="geometry">
            <mxPoint x="16" as="offset" />
          </mxGeometry>
        </mxCell>
        <mxCell id="f7oeg_aIIOycvTehZ1-j-199" value="1" style="edgeLabel;html=1;align=center;verticalAlign=middle;resizable=0;points=[];" vertex="1" connectable="0" parent="f7oeg_aIIOycvTehZ1-j-166">
          <mxGeometry x="-0.5139" relative="1" as="geometry">
            <mxPoint x="-11" y="-13" as="offset" />
          </mxGeometry>
        </mxCell>
        <mxCell id="f7oeg_aIIOycvTehZ1-j-167" style="edgeStyle=orthogonalEdgeStyle;rounded=0;orthogonalLoop=1;jettySize=auto;html=1;endArrow=open;endFill=0;startSize=24;endSize=6;startArrow=diamondThin;startFill=1;" edge="1" parent="1" source="f7oeg_aIIOycvTehZ1-j-112" target="f7oeg_aIIOycvTehZ1-j-116">
          <mxGeometry relative="1" as="geometry" />
        </mxCell>
        <mxCell id="f7oeg_aIIOycvTehZ1-j-170" value="Contains" style="edgeLabel;html=1;align=center;verticalAlign=middle;resizable=0;points=[];" vertex="1" connectable="0" parent="f7oeg_aIIOycvTehZ1-j-167">
          <mxGeometry x="-0.069" y="3" relative="1" as="geometry">
            <mxPoint x="4" y="3" as="offset" />
          </mxGeometry>
        </mxCell>
        <mxCell id="f7oeg_aIIOycvTehZ1-j-200" value="1" style="edgeLabel;html=1;align=center;verticalAlign=middle;resizable=0;points=[];" vertex="1" connectable="0" parent="f7oeg_aIIOycvTehZ1-j-167">
          <mxGeometry x="-0.4759" y="1" relative="1" as="geometry">
            <mxPoint y="-12" as="offset" />
          </mxGeometry>
        </mxCell>
        <mxCell id="f7oeg_aIIOycvTehZ1-j-112" value="DebitCreditCard" style="swimlane;fontStyle=1;align=center;verticalAlign=top;childLayout=stackLayout;horizontal=1;startSize=26;horizontalStack=0;resizeParent=1;resizeParentMax=0;resizeLast=0;collapsible=1;marginBottom=0;whiteSpace=wrap;html=1;" vertex="1" parent="1">
          <mxGeometry x="600" y="1187" width="160" height="112" as="geometry" />
        </mxCell>
        <mxCell id="f7oeg_aIIOycvTehZ1-j-113" value="DebitCard: DebitCard" style="text;strokeColor=none;fillColor=none;align=left;verticalAlign=top;spacingLeft=4;spacingRight=4;overflow=hidden;rotatable=0;points=[[0,0.5],[1,0.5]];portConstraint=eastwest;whiteSpace=wrap;html=1;" vertex="1" parent="f7oeg_aIIOycvTehZ1-j-112">
          <mxGeometry y="26" width="160" height="26" as="geometry" />
        </mxCell>
        <mxCell id="f7oeg_aIIOycvTehZ1-j-171" value="CreditCard: CreditCard" style="text;strokeColor=none;fillColor=none;align=left;verticalAlign=top;spacingLeft=4;spacingRight=4;overflow=hidden;rotatable=0;points=[[0,0.5],[1,0.5]];portConstraint=eastwest;whiteSpace=wrap;html=1;" vertex="1" parent="f7oeg_aIIOycvTehZ1-j-112">
          <mxGeometry y="52" width="160" height="26" as="geometry" />
        </mxCell>
        <mxCell id="f7oeg_aIIOycvTehZ1-j-114" value="" style="line;strokeWidth=1;fillColor=none;align=left;verticalAlign=middle;spacingTop=-1;spacingLeft=3;spacingRight=3;rotatable=0;labelPosition=right;points=[];portConstraint=eastwest;strokeColor=inherit;" vertex="1" parent="f7oeg_aIIOycvTehZ1-j-112">
          <mxGeometry y="78" width="160" height="8" as="geometry" />
        </mxCell>
        <mxCell id="f7oeg_aIIOycvTehZ1-j-115" value="ToString:String" style="text;strokeColor=none;fillColor=none;align=left;verticalAlign=top;spacingLeft=4;spacingRight=4;overflow=hidden;rotatable=0;points=[[0,0.5],[1,0.5]];portConstraint=eastwest;whiteSpace=wrap;html=1;" vertex="1" parent="f7oeg_aIIOycvTehZ1-j-112">
          <mxGeometry y="86" width="160" height="26" as="geometry" />
        </mxCell>
        <mxCell id="f7oeg_aIIOycvTehZ1-j-116" value="CreditCard" style="swimlane;fontStyle=1;align=center;verticalAlign=top;childLayout=stackLayout;horizontal=1;startSize=26;horizontalStack=0;resizeParent=1;resizeParentMax=0;resizeLast=0;collapsible=1;marginBottom=0;whiteSpace=wrap;html=1;" vertex="1" parent="1">
          <mxGeometry x="880" y="1200" width="160" height="86" as="geometry" />
        </mxCell>
        <mxCell id="f7oeg_aIIOycvTehZ1-j-117" value="&amp;nbsp;" style="text;strokeColor=none;fillColor=none;align=left;verticalAlign=top;spacingLeft=4;spacingRight=4;overflow=hidden;rotatable=0;points=[[0,0.5],[1,0.5]];portConstraint=eastwest;whiteSpace=wrap;html=1;" vertex="1" parent="f7oeg_aIIOycvTehZ1-j-116">
          <mxGeometry y="26" width="160" height="26" as="geometry" />
        </mxCell>
        <mxCell id="f7oeg_aIIOycvTehZ1-j-118" value="" style="line;strokeWidth=1;fillColor=none;align=left;verticalAlign=middle;spacingTop=-1;spacingLeft=3;spacingRight=3;rotatable=0;labelPosition=right;points=[];portConstraint=eastwest;strokeColor=inherit;" vertex="1" parent="f7oeg_aIIOycvTehZ1-j-116">
          <mxGeometry y="52" width="160" height="8" as="geometry" />
        </mxCell>
        <mxCell id="f7oeg_aIIOycvTehZ1-j-119" value="ToString:String" style="text;strokeColor=none;fillColor=none;align=left;verticalAlign=top;spacingLeft=4;spacingRight=4;overflow=hidden;rotatable=0;points=[[0,0.5],[1,0.5]];portConstraint=eastwest;whiteSpace=wrap;html=1;" vertex="1" parent="f7oeg_aIIOycvTehZ1-j-116">
          <mxGeometry y="60" width="160" height="26" as="geometry" />
        </mxCell>
        <mxCell id="f7oeg_aIIOycvTehZ1-j-134" value="IMaxUse" style="swimlane;fontStyle=1;align=center;verticalAlign=top;childLayout=stackLayout;horizontal=1;startSize=26;horizontalStack=0;resizeParent=1;resizeParentMax=0;resizeLast=0;collapsible=1;marginBottom=0;whiteSpace=wrap;html=1;" vertex="1" parent="1">
          <mxGeometry x="900" y="655" width="160" height="216" as="geometry" />
        </mxCell>
        <mxCell id="f7oeg_aIIOycvTehZ1-j-135" value="+ MaxDay: uint" style="text;strokeColor=none;fillColor=none;align=left;verticalAlign=top;spacingLeft=4;spacingRight=4;overflow=hidden;rotatable=0;points=[[0,0.5],[1,0.5]];portConstraint=eastwest;whiteSpace=wrap;html=1;" vertex="1" parent="f7oeg_aIIOycvTehZ1-j-134">
          <mxGeometry y="26" width="160" height="26" as="geometry" />
        </mxCell>
        <mxCell id="f7oeg_aIIOycvTehZ1-j-139" value="+ MaxMonth: uint" style="text;strokeColor=none;fillColor=none;align=left;verticalAlign=top;spacingLeft=4;spacingRight=4;overflow=hidden;rotatable=0;points=[[0,0.5],[1,0.5]];portConstraint=eastwest;whiteSpace=wrap;html=1;" vertex="1" parent="f7oeg_aIIOycvTehZ1-j-134">
          <mxGeometry y="52" width="160" height="26" as="geometry" />
        </mxCell>
        <mxCell id="f7oeg_aIIOycvTehZ1-j-138" value="+MaxYear: uint" style="text;strokeColor=none;fillColor=none;align=left;verticalAlign=top;spacingLeft=4;spacingRight=4;overflow=hidden;rotatable=0;points=[[0,0.5],[1,0.5]];portConstraint=eastwest;whiteSpace=wrap;html=1;" vertex="1" parent="f7oeg_aIIOycvTehZ1-j-134">
          <mxGeometry y="78" width="160" height="26" as="geometry" />
        </mxCell>
        <mxCell id="f7oeg_aIIOycvTehZ1-j-165" value="+ Today: uint" style="text;strokeColor=none;fillColor=none;align=left;verticalAlign=top;spacingLeft=4;spacingRight=4;overflow=hidden;rotatable=0;points=[[0,0.5],[1,0.5]];portConstraint=eastwest;whiteSpace=wrap;html=1;" vertex="1" parent="f7oeg_aIIOycvTehZ1-j-134">
          <mxGeometry y="104" width="160" height="26" as="geometry" />
        </mxCell>
        <mxCell id="f7oeg_aIIOycvTehZ1-j-164" value="+ ThisMonth: uint" style="text;strokeColor=none;fillColor=none;align=left;verticalAlign=top;spacingLeft=4;spacingRight=4;overflow=hidden;rotatable=0;points=[[0,0.5],[1,0.5]];portConstraint=eastwest;whiteSpace=wrap;html=1;" vertex="1" parent="f7oeg_aIIOycvTehZ1-j-134">
          <mxGeometry y="130" width="160" height="26" as="geometry" />
        </mxCell>
        <mxCell id="f7oeg_aIIOycvTehZ1-j-163" value="+ ThisYear: uint" style="text;strokeColor=none;fillColor=none;align=left;verticalAlign=top;spacingLeft=4;spacingRight=4;overflow=hidden;rotatable=0;points=[[0,0.5],[1,0.5]];portConstraint=eastwest;whiteSpace=wrap;html=1;" vertex="1" parent="f7oeg_aIIOycvTehZ1-j-134">
          <mxGeometry y="156" width="160" height="26" as="geometry" />
        </mxCell>
        <mxCell id="f7oeg_aIIOycvTehZ1-j-136" value="" style="line;strokeWidth=1;fillColor=none;align=left;verticalAlign=middle;spacingTop=-1;spacingLeft=3;spacingRight=3;rotatable=0;labelPosition=right;points=[];portConstraint=eastwest;strokeColor=inherit;" vertex="1" parent="f7oeg_aIIOycvTehZ1-j-134">
          <mxGeometry y="182" width="160" height="8" as="geometry" />
        </mxCell>
        <mxCell id="f7oeg_aIIOycvTehZ1-j-137" value="&amp;nbsp;" style="text;strokeColor=none;fillColor=none;align=left;verticalAlign=top;spacingLeft=4;spacingRight=4;overflow=hidden;rotatable=0;points=[[0,0.5],[1,0.5]];portConstraint=eastwest;whiteSpace=wrap;html=1;" vertex="1" parent="f7oeg_aIIOycvTehZ1-j-134">
          <mxGeometry y="190" width="160" height="26" as="geometry" />
        </mxCell>
        <mxCell id="f7oeg_aIIOycvTehZ1-j-150" style="edgeStyle=orthogonalEdgeStyle;rounded=0;orthogonalLoop=1;jettySize=auto;html=1;" edge="1" parent="1" source="f7oeg_aIIOycvTehZ1-j-139" target="f7oeg_aIIOycvTehZ1-j-74">
          <mxGeometry relative="1" as="geometry" />
        </mxCell>
        <mxCell id="f7oeg_aIIOycvTehZ1-j-151" value="Implements" style="edgeLabel;html=1;align=center;verticalAlign=middle;resizable=0;points=[];" vertex="1" connectable="0" parent="f7oeg_aIIOycvTehZ1-j-150">
          <mxGeometry x="0.4271" relative="1" as="geometry">
            <mxPoint x="25" y="-19" as="offset" />
          </mxGeometry>
        </mxCell>
        <mxCell id="f7oeg_aIIOycvTehZ1-j-154" value="StoreGiftCard" style="swimlane;fontStyle=1;align=center;verticalAlign=top;childLayout=stackLayout;horizontal=1;startSize=26;horizontalStack=0;resizeParent=1;resizeParentMax=0;resizeLast=0;collapsible=1;marginBottom=0;whiteSpace=wrap;html=1;" vertex="1" parent="1">
          <mxGeometry x="-40" y="880" width="160" height="86" as="geometry" />
        </mxCell>
        <mxCell id="f7oeg_aIIOycvTehZ1-j-155" value="+StoreID: string" style="text;strokeColor=none;fillColor=none;align=left;verticalAlign=top;spacingLeft=4;spacingRight=4;overflow=hidden;rotatable=0;points=[[0,0.5],[1,0.5]];portConstraint=eastwest;whiteSpace=wrap;html=1;" vertex="1" parent="f7oeg_aIIOycvTehZ1-j-154">
          <mxGeometry y="26" width="160" height="26" as="geometry" />
        </mxCell>
        <mxCell id="f7oeg_aIIOycvTehZ1-j-156" value="" style="line;strokeWidth=1;fillColor=none;align=left;verticalAlign=middle;spacingTop=-1;spacingLeft=3;spacingRight=3;rotatable=0;labelPosition=right;points=[];portConstraint=eastwest;strokeColor=inherit;" vertex="1" parent="f7oeg_aIIOycvTehZ1-j-154">
          <mxGeometry y="52" width="160" height="8" as="geometry" />
        </mxCell>
        <mxCell id="f7oeg_aIIOycvTehZ1-j-157" value="&amp;nbsp;" style="text;strokeColor=none;fillColor=none;align=left;verticalAlign=top;spacingLeft=4;spacingRight=4;overflow=hidden;rotatable=0;points=[[0,0.5],[1,0.5]];portConstraint=eastwest;whiteSpace=wrap;html=1;" vertex="1" parent="f7oeg_aIIOycvTehZ1-j-154">
          <mxGeometry y="60" width="160" height="26" as="geometry" />
        </mxCell>
        <mxCell id="f7oeg_aIIOycvTehZ1-j-191" style="edgeStyle=orthogonalEdgeStyle;rounded=0;orthogonalLoop=1;jettySize=auto;html=1;" edge="1" parent="1" source="f7oeg_aIIOycvTehZ1-j-187" target="f7oeg_aIIOycvTehZ1-j-69">
          <mxGeometry relative="1" as="geometry" />
        </mxCell>
        <mxCell id="f7oeg_aIIOycvTehZ1-j-192" style="edgeStyle=orthogonalEdgeStyle;rounded=0;orthogonalLoop=1;jettySize=auto;html=1;" edge="1" parent="1" source="f7oeg_aIIOycvTehZ1-j-187" target="f7oeg_aIIOycvTehZ1-j-74">
          <mxGeometry relative="1" as="geometry" />
        </mxCell>
        <mxCell id="f7oeg_aIIOycvTehZ1-j-187" value="&lt;i&gt;Card&lt;/i&gt;" style="swimlane;fontStyle=1;align=center;verticalAlign=top;childLayout=stackLayout;horizontal=1;startSize=26;horizontalStack=0;resizeParent=1;resizeParentMax=0;resizeLast=0;collapsible=1;marginBottom=0;whiteSpace=wrap;html=1;" vertex="1" parent="1">
          <mxGeometry x="260" y="695" width="160" height="86" as="geometry" />
        </mxCell>
        <mxCell id="f7oeg_aIIOycvTehZ1-j-188" value="+ Balance:float" style="text;strokeColor=none;fillColor=none;align=left;verticalAlign=top;spacingLeft=4;spacingRight=4;overflow=hidden;rotatable=0;points=[[0,0.5],[1,0.5]];portConstraint=eastwest;whiteSpace=wrap;html=1;" vertex="1" parent="f7oeg_aIIOycvTehZ1-j-187">
          <mxGeometry y="26" width="160" height="26" as="geometry" />
        </mxCell>
        <mxCell id="f7oeg_aIIOycvTehZ1-j-189" value="" style="line;strokeWidth=1;fillColor=none;align=left;verticalAlign=middle;spacingTop=-1;spacingLeft=3;spacingRight=3;rotatable=0;labelPosition=right;points=[];portConstraint=eastwest;strokeColor=inherit;" vertex="1" parent="f7oeg_aIIOycvTehZ1-j-187">
          <mxGeometry y="52" width="160" height="8" as="geometry" />
        </mxCell>
        <mxCell id="f7oeg_aIIOycvTehZ1-j-190" value="+ reduce(float): bool" style="text;strokeColor=none;fillColor=none;align=left;verticalAlign=top;spacingLeft=4;spacingRight=4;overflow=hidden;rotatable=0;points=[[0,0.5],[1,0.5]];portConstraint=eastwest;whiteSpace=wrap;html=1;" vertex="1" parent="f7oeg_aIIOycvTehZ1-j-187">
          <mxGeometry y="60" width="160" height="26" as="geometry" />
        </mxCell>
        <mxCell id="f7oeg_aIIOycvTehZ1-j-194" style="edgeStyle=orthogonalEdgeStyle;rounded=0;orthogonalLoop=1;jettySize=auto;html=1;elbow=vertical;endArrow=open;endFill=0;" edge="1" parent="1" source="f7oeg_aIIOycvTehZ1-j-44" target="f7oeg_aIIOycvTehZ1-j-13">
          <mxGeometry relative="1" as="geometry">
            <Array as="points">
              <mxPoint x="1200" y="1380" />
              <mxPoint x="230" y="1380" />
              <mxPoint x="230" y="999" />
            </Array>
          </mxGeometry>
        </mxCell>
        <mxCell id="f7oeg_aIIOycvTehZ1-j-201" value="Use" style="edgeLabel;html=1;align=center;verticalAlign=middle;resizable=0;points=[];" vertex="1" connectable="0" parent="f7oeg_aIIOycvTehZ1-j-194">
          <mxGeometry x="-0.9172" y="2" relative="1" as="geometry">
            <mxPoint as="offset" />
          </mxGeometry>
        </mxCell>
      </root>
    </mxGraphModel>
  </diagram>
</mxfile>
